<svg xmlns="http://www.w3.org/2000/svg" xmlns:xlink="http://www.w3.org/1999/xlink" version="1.1" id="Layer_1" x="0px" y="0px" viewBox="0 0 468 275" style="enable-background:new 0 0 468 275;" xml:space="preserve">
<style type="text/css">
	.st0{fill:none;}
	.st1{opacity:0.383;fill-rule:evenodd;clip-rule:evenodd;fill:#DDECEA;enable-background:new    ;}
	.st2{opacity:0.336;fill-rule:evenodd;clip-rule:evenodd;fill:#DDECEA;enable-background:new    ;}
	.st3{fill-rule:evenodd;clip-rule:evenodd;fill:#DAE2E6;stroke:#C5D7E0;stroke-width:1.2;stroke-linecap:round;}
	.st4{fill:none;stroke:#C5D7E0;stroke-width:1.2;stroke-linecap:round;stroke-linejoin:round;}
	.st5{fill-rule:evenodd;clip-rule:evenodd;fill:#FFFFFF;stroke:#404F54;stroke-width:1.5;stroke-linecap:round;}
	.st6{fill-rule:evenodd;clip-rule:evenodd;fill:#E0EAEF;}
	.st7{fill-rule:evenodd;clip-rule:evenodd;fill:#6aace6;stroke:#404F54;stroke-width:1.5;stroke-linecap:round;}
	.st8{fill:none;stroke:#E0EAEF;stroke-width:1.5;}
	.st9{fill-rule:evenodd;clip-rule:evenodd;fill:#5e5e5e;}
	.st10{fill-rule:evenodd;clip-rule:evenodd;fill:#FFFFFF;}
	.st11{fill:none;stroke:#404F54;stroke-width:1.5;stroke-linecap:round;}
	.st12{fill-rule:evenodd;clip-rule:evenodd;fill:#F5F6F7;stroke:#404F54;stroke-linecap:round;}
	.st13{fill-rule:evenodd;clip-rule:evenodd;fill:#5e5e5e;stroke:#404F54;stroke-linecap:round;}
	.st14{fill-rule:evenodd;clip-rule:evenodd;fill:#5e5e5e99;stroke:#404F54;}
	.st15{fill-rule:evenodd;clip-rule:evenodd;fill:#5e5e5e;}
	.st16{fill:none;stroke:#404F54;}
	.st17{fill-rule:evenodd;clip-rule:evenodd;fill:#FFFFFF;stroke:#404F54;stroke-linecap:round;}
	.st18{fill:none;stroke:#404F54;stroke-width:0.75;stroke-linecap:round;stroke-linejoin:round;}
	.st19{fill-rule:evenodd;clip-rule:evenodd;fill:#F5F6F7;stroke:#5e5e5e;stroke-linecap:round;}
	.st20{fill-rule:evenodd;clip-rule:evenodd;fill:#DAE2E6;}
	.st21{fill-rule:evenodd;clip-rule:evenodd;fill:#F5F6F7;stroke:#404F54;stroke-width:0.75;stroke-linecap:round;}
	.st22{fill:none;stroke:#404F54;stroke-width:0.75;stroke-linecap:round;}
	.st23{fill-rule:evenodd;clip-rule:evenodd;fill:#4d90cc;stroke:#404F54;stroke-width:1.5;stroke-linecap:round;}
	.st24{fill-rule:evenodd;clip-rule:evenodd;fill:#6aace6;}
	.st25{fill-rule:evenodd;clip-rule:evenodd;fill:#5e5e5e;stroke:#404F54;stroke-width:1.5;stroke-linecap:round;}
	.st26{fill:none;stroke:#FFFFFF;stroke-width:1.5;stroke-linecap:round;}
</style>
<title>illustration_quiz</title>
<desc>Created with Sketch.</desc>
<g>
	<path class="st0" d="M114,16h235v233H114V16z"/>
	<g transform="translate(11.415 5.478)">
		<ellipse class="st1" cx="214.9" cy="134.8" rx="92.6" ry="91.8"/>
		<ellipse class="st2" cx="240.6" cy="118.1" rx="92.6" ry="91.8"/>
	</g>
	<g transform="translate(.832 .752)">
		<path class="st3" d="M157.7,33.3l-4.1-4 M332.6,211.5l-4.1-4 M122,81.9l5-2.9 M132.8,135.7l5-2.9"/>
		<path class="st4" d="M341.8,69.6c0,1.6,1.3,2.9,2.9,2.9c1.6,0,2.9-1.3,2.9-2.9c0-1.6-1.3-2.9-2.9-2.9 M255,26.6    c0,1.6,1.3,2.9,2.9,2.9s2.9-1.3,2.9-2.9c0-1.6-1.3-2.9-2.9-2.9"/>
		<ellipse class="st4" cx="339.1" cy="156.9" rx="2" ry="2"/>
		<ellipse class="st4" cx="206.1" cy="244.8" rx="2" ry="2"/>
		<ellipse class="st4" cx="119.4" cy="169.5" rx="2" ry="2"/>
		<ellipse class="st4" cx="265.3" cy="230.1" rx="2" ry="2"/>
		<ellipse class="st4" cx="228.3" cy="98.3" rx="2" ry="2"/>
	</g>
	<g transform="rotate(15 -92.476 411.016)">
		<path class="st5" d="M170.5,20l0-9.2c0-2.7,2.2-5,5-5c0,0,0,0,0,0l59.2-0.1c2.8,0,5,2.2,5,4.9c0,0,0,0,0,0l-0.2,81.5    c0,2.7-2.2,5-5,5c0,0,0,0,0,0l-59.2,0.1c-2.8,0-5-2.2-5-4.9c0,0,0,0,0,0l0.1-48.2 M170.5,37.9l0-12.9"/>
		<path class="st5" d="M190-3.4l30.4-0.1c4.2,0,7.6,3.4,7.6,7.5l0,0c0,4.2-3.4,7.5-7.6,7.5l-30.4,0.1c-4.2,0-7.6-3.4-7.6-7.5l0,0    C182.4,0,185.8-3.4,190-3.4z"/>
		<path class="st6" d="M193.1,0l24-0.1c2.6,0,4.6,2,4.6,4.6v0c0,2.5-2.1,4.6-4.6,4.6l-24,0.1c-2.6,0-4.6-2-4.6-4.6v0    C188.5,2.1,190.6,0.1,193.1,0z"/>
		<path class="st5" d="M203.1,91.4l-23.1,0c-2.8,0-5-2.2-5-4.9c0,0,0,0,0,0l0.2-80.7L235,5.7l-0.2,80.7c0,2.7-2.2,5-5,5l-6.3,0     M223.5,91.4l-20.3,0"/>
		<path class="st7" d="M182.8,46.5l-7.6,0l0.1-40.8L235,5.6l-0.1,40.8l-22.5,0 M223.1,46.4l-40.6,0.1"/>
		<path class="st6" d="M184.5,52.1l21.6,0c0.9,0,1.7,0.7,1.7,1.7v0c0,0.9-0.8,1.7-1.7,1.7l-21.6,0c-0.9,0-1.7-0.7-1.7-1.7v0    C182.8,52.9,183.5,52.1,184.5,52.1z"/>
		<path class="st8" d="M186.8,59.4l36.3-0.1c2,0,3.7,1.6,3.7,3.7v0c0,2-1.7,3.7-3.7,3.7l-36.3,0.1c-2,0-3.7-1.6-3.7-3.7v0    C183.1,61.1,184.7,59.4,186.8,59.4z"/>
		<path class="st6" d="M184.4,71.4l21.6,0c0.9,0,1.7,0.7,1.7,1.7v0c0,0.9-0.8,1.7-1.7,1.7l-21.6,0c-0.9,0-1.7-0.7-1.7-1.7v0    C182.7,72.1,183.5,71.4,184.4,71.4z"/>
		<path class="st8" d="M186.7,78.7l36.3-0.1c2,0,3.7,1.6,3.7,3.7l0,0c0,2-1.7,3.7-3.7,3.7L186.7,86c-2,0-3.7-1.6-3.7-3.7l0,0    C183,80.3,184.7,78.7,186.7,78.7z"/>
		<path class="st9" d="M195.6,38.2l19.9,0c0.9,0,1.7,0.7,1.7,1.7v0c0,0.9-0.8,1.7-1.7,1.7l-19.9,0c-0.9,0-1.7-0.7-1.7-1.7v0    C193.9,38.9,194.6,38.2,195.6,38.2z"/>
	</g>
	<g transform="rotate(15 -136.662 464.996)">

			<ellipse transform="matrix(-0.9659 0.2588 -0.2588 -0.9659 375.2115 -25.0263)" class="st10" cx="189.3" cy="12.2" rx="11.5" ry="11.4"/>

			<ellipse transform="matrix(-0.9659 0.2588 -0.2588 -0.9659 378.7768 -22.3115)" class="st10" cx="190.9" cy="13.8" rx="11.5" ry="11.4"/>

			<ellipse transform="matrix(-0.9659 0.2588 -0.2588 -0.9659 375.2115 -25.0263)" class="st11" cx="189.3" cy="12.2" rx="11.5" ry="11.4"/>
		<g transform="translate(4.052 1.89)">

				<ellipse transform="matrix(0.1615 0.9869 -0.9869 0.1615 163.0351 -168.2435)" class="st12" cx="180.5" cy="11.8" rx="1.1" ry="1.1"/>

				<ellipse transform="matrix(0.1615 0.9869 -0.9869 0.1615 171.1169 -177.7985)" class="st12" cx="190.2" cy="11.8" rx="1.1" ry="1.1"/>
			<path class="st13" d="M182.8,13.8l5.1,0c1.1,0,1.9,0.8,1.9,1.9v0c0,1-0.9,1.9-1.9,1.9l-5.1,0c-1.1,0-1.9-0.8-1.9-1.9v0     C180.9,14.6,181.7,13.8,182.8,13.8z"/>

				<ellipse transform="matrix(-0.9659 0.2588 -0.2588 -0.9659 365.688 -39.9797)" class="st14" cx="185.5" cy="4.1" rx="2.2" ry="2.2"/>
			<path class="st15" d="M187.6,3.4c0.4,1.2-0.3,2.4-1.4,2.8c-0.7,0.2-1.6,0.1-2.1-0.4c-0.4-1.2,0.3-2.4,1.4-2.8     C186.2,2.7,187,2.9,187.6,3.4z"/>

				<ellipse transform="matrix(-0.9659 0.2588 -0.2588 -0.9659 365.688 -39.9797)" class="st16" cx="185.5" cy="4.1" rx="2.2" ry="2.2"/>
			<path class="st12" d="M185.3,15.1L185.3,15.1c0.6,0,1.1,0.5,1.1,1.1l0,1.7c0,0.6-0.5,1.1-1.1,1.1l0,0c-0.6,0-1.1-0.5-1.1-1.1     l0-1.7C184.3,15.5,184.8,15.1,185.3,15.1z"/>
			<path class="st17" d="M185.4,5.1L185.4,5.1c2.5,0,4.5,2,4.5,4.4l0,2.9c0,2.4-2,4.4-4.5,4.4l0,0c-2.5,0-4.5-2-4.5-4.4l0-2.9     C180.9,7.1,182.9,5.1,185.4,5.1z"/>
			<path class="st18" d="M185,12.3l0,1.3l0.4,0"/>
			<path class="st19" d="M184.5,14.4c0,0.4,0.3,0.7,0.7,0.7s0.7-0.3,0.7-0.7"/>
			<path class="st20" d="M184,5.3c-1.8,0.6-3.1,2.3-3.1,4.2l0,1.5c0.4-0.1,1.9-0.4,3.8-0.8c2.2-0.5,3.1-1.2,3.1-1.2s0.4,1.1,0.7,1.6     c0.3,0.5,0.9,1.2,0.9,1.2l0-1.4c0,0,0.1,0.1,0.3,0.1l0-0.9c0-1.9-1.2-3.5-2.9-4.1c-0.8-0.1-1.7-0.1-2.8-0.1L184,5.3L184,5.3z"/>
			<path class="st21" d="M187.8,12.4c0-0.3-0.2-0.5-0.5-0.5c-0.3,0-0.5,0.2-0.5,0.5 M184,12.4c0-0.3-0.2-0.5-0.5-0.5     c-0.3,0-0.5,0.2-0.5,0.5"/>
			<path class="st22" d="M184.3,11c0-0.5-0.4-0.8-0.8-0.8c-0.5,0-0.8,0.4-0.9,0.8 M188,11c0-0.5-0.4-0.8-0.8-0.8     c-0.5,0-0.8,0.4-0.9,0.8"/>
			<path class="st14" d="M188.1,7.8c0,0-1.1,0.9-3.4,1.4C182.5,9.7,181,10,181,10l-0.1,1l-1,0c0,0-0.4-3,0.3-4.3     c0.7-1.3,1.9-2.4,3.9-2.4c2,0,3.5-0.1,4.6,0.7c1.1,0.9,1.9,2.4,1.9,3.5l0,2.3l-0.8,0c0,0-0.8-0.8-1-1.3     C188.5,9,188.1,7.8,188.1,7.8L188.1,7.8z"/>
			<path class="st15" d="M181,10c1.2-0.2,2.5-0.5,3.7-0.7c2.2-0.5,3.4-1.4,3.4-1.4s0.4,1.2,0.7,1.7c0.2,0.3,0.4,0.6,0.6,0.8l0-1.6     c0-0.9-0.6-2.1-1.4-2.7c-0.9-0.7-2-0.6-3.6-0.6c-1.5,0-2.5,0.8-3,1.8C181.1,7.8,181,8.9,181,10z"/>
			<path class="st16" d="M188.1,7.8c0,0-1.1,0.9-3.4,1.4C182.5,9.7,181,10,181,10l-0.1,1l-1,0c0,0-0.4-3,0.3-4.3     c0.7-1.3,1.9-2.4,3.9-2.4c2,0,3.5-0.1,4.6,0.7c1.1,0.9,1.9,2.4,1.9,3.5l0,2.3l-0.8,0c0,0-0.8-0.8-1-1.3     C188.5,9,188.1,7.8,188.1,7.8L188.1,7.8z"/>
			<path class="st0" d="M188.1,8.8c0,0-1.1,0.9-3.4,1.4c-2.2,0.5-3.8,0.7-3.8,0.7l-0.1,1l-1,0c0,0-0.4-3,0.3-4.3     c0.7-1.3,1.9-2.4,3.9-2.4s3.5-0.1,4.6,0.7c1.1,0.9,1.9,2.4,1.9,3.5l0,2.3l-0.8,0c0,0-0.8-0.8-1-1.3C188.5,10,188.1,8.8,188.1,8.8     L188.1,8.8z"/>
		</g>
	</g>
	<g transform="rotate(-15 180.733 -16.092)">
		<path class="st5" d="M106.5,97.9l0-9.2c0-2.7,2.2-5,5-4.9c0,0,0,0,0,0l59.2,0.1c2.8,0,5,2.2,5,5c0,0,0,0,0,0l0.2,81.5    c0,2.7-2.2,5-5,4.9c0,0,0,0,0,0l-59.2-0.1c-2.8,0-5-2.2-5-5c0,0,0,0,0,0l-0.1-48.2 M106.6,115.9l0-12.9"/>
		<path class="st5" d="M125.9,74.6l30.4,0.1c4.2,0,7.6,3.4,7.6,7.5l0,0c0,4.2-3.4,7.5-7.6,7.5l-30.4-0.1c-4.2,0-7.6-3.4-7.6-7.5l0,0    C118.3,78,121.7,74.6,125.9,74.6z"/>
		<path class="st6" d="M129.1,78.1l24,0.1c2.6,0,4.6,2.1,4.6,4.6v0c0,2.5-2.1,4.6-4.6,4.6l-24-0.1c-2.6,0-4.6-2.1-4.6-4.6l0,0    C124.5,80.1,126.5,78.1,129.1,78.1z"/>
		<path class="st5" d="M139.5,169.5l-23.1,0c-2.8,0-5-2.2-5-5c0,0,0,0,0,0l-0.2-80.7l59.7,0.1l0.2,80.7c0,2.7-2.2,5-5,4.9l-6.3,0     M159.8,169.6l-20.3,0"/>
		<path class="st7" d="M119,124.5l-7.6,0l-0.1-40.8l59.7,0.1l0.1,40.8l-22.5,0 M159.3,124.6l-40.6-0.1"/>
		<path class="st6" d="M120.7,130.2l21.6,0c0.9,0,1.7,0.8,1.7,1.7v0c0,0.9-0.7,1.7-1.7,1.7l-21.6,0c-0.9,0-1.7-0.8-1.7-1.7v0    C119,130.9,119.7,130.2,120.7,130.2z"/>
		<path class="st8" d="M123,137.5l36.3,0.1c2,0,3.7,1.6,3.7,3.7v0c0,2-1.6,3.7-3.7,3.7l-36.3-0.1c-2,0-3.7-1.6-3.7-3.7v0    C119.3,139.1,120.9,137.5,123,137.5z"/>
		<path class="st6" d="M120.7,149.4l21.6,0c0.9,0,1.7,0.8,1.7,1.7v0c0,0.9-0.7,1.7-1.7,1.7l-21.6,0c-0.9,0-1.7-0.8-1.7-1.7v0    C119,150.1,119.8,149.4,120.7,149.4z"/>
		<path class="st8" d="M123,156.7l36.3,0.1c2,0,3.7,1.6,3.7,3.7l0,0c0,2-1.6,3.7-3.7,3.7L123,164c-2,0-3.7-1.6-3.7-3.7l0,0    C119.3,158.3,121,156.7,123,156.7z"/>
		<path class="st9" d="M131.7,116.2l19.9,0c0.9,0,1.7,0.8,1.7,1.7v0c0,0.9-0.7,1.7-1.7,1.7l-19.9,0c-0.9,0-1.7-0.8-1.7-1.7l0,0    C130,117,130.8,116.2,131.7,116.2z"/>
	</g>
	<g transform="rotate(-15 209.443 -79.67)">

			<ellipse transform="matrix(-0.9659 -0.2588 0.2588 -0.9659 222.9747 209.9423)" class="st10" cx="125.3" cy="90.3" rx="11.5" ry="11.4"/>

			<ellipse transform="matrix(-0.9659 -0.2588 0.2588 -0.9659 225.7276 213.5026)" class="st10" cx="126.9" cy="91.9" rx="11.5" ry="11.4"/>

			<ellipse transform="matrix(-0.9659 -0.2588 0.2588 -0.9659 222.9747 209.9423)" class="st11" cx="125.3" cy="90.3" rx="11.5" ry="11.4"/>
		<g transform="translate(4.052 1.89)">

				<ellipse transform="matrix(-0.9869 -0.1615 0.1615 -0.9869 217.1206 197.4669)" class="st12" cx="116.6" cy="89.9" rx="1.1" ry="1.1"/>

				<ellipse transform="matrix(-0.9869 -0.1615 0.1615 -0.9869 236.32 199.0685)" class="st12" cx="126.3" cy="89.9" rx="1.1" ry="1.1"/>
			<path class="st13" d="M118.9,91.9l5.1,0c1.1,0,1.9,0.9,1.9,1.9l0,0c0,1-0.8,1.9-1.9,1.9l-5.1,0c-1.1,0-1.9-0.9-1.9-1.9l0,0     C117,92.7,117.8,91.9,118.9,91.9z"/>

				<ellipse transform="matrix(-0.9659 -0.2588 0.2588 -0.9659 217.5933 193.0289)" class="st14" cx="121.5" cy="82.2" rx="2.2" ry="2.2"/>
			<path class="st15" d="M123.6,81.5c0.4,1.2-0.3,2.4-1.4,2.8c-0.7,0.2-1.6,0.1-2.1-0.4c-0.4-1.2,0.3-2.4,1.4-2.8     C122.2,80.8,123,81,123.6,81.5z"/>

				<ellipse transform="matrix(-0.9659 -0.2588 0.2588 -0.9659 217.5933 193.0289)" class="st16" cx="121.5" cy="82.2" rx="2.2" ry="2.2"/>
			<path class="st12" d="M121.4,93.2L121.4,93.2c0.6,0,1.1,0.5,1.1,1.1l0,1.7c0,0.6-0.5,1.1-1.1,1.1l0,0c-0.6,0-1.1-0.5-1.1-1.1     l0-1.7C120.4,93.6,120.8,93.2,121.4,93.2z"/>
			<path class="st17" d="M121.4,83.2L121.4,83.2c2.5,0,4.5,2,4.5,4.4l0,2.9c0,2.4-2,4.4-4.5,4.4l0,0c-2.5,0-4.5-2-4.5-4.4l0-2.9     C116.9,85.2,118.9,83.2,121.4,83.2z"/>
			<path class="st18" d="M121,90.4l0,1.3l0.4,0"/>
			<path class="st19" d="M120.6,92.5c0,0.4,0.3,0.7,0.7,0.7c0.4,0,0.7-0.3,0.7-0.7"/>
			<path class="st20" d="M120,83.4c-1.8,0.6-3.1,2.3-3.1,4.2l0,1.5c0.4-0.1,1.9-0.4,3.8-0.8c2.2-0.5,3.1-1.2,3.1-1.2     s0.4,1.1,0.7,1.6c0.3,0.5,0.9,1.2,0.9,1.2l0-1.4c0,0,0.1,0.1,0.3,0.1l0-0.9c0-1.9-1.2-3.5-2.9-4.1c-0.8-0.1-1.7-0.1-2.8-0.1     L120,83.4L120,83.4z"/>
			<path class="st21" d="M123.8,90.5c0-0.3-0.2-0.5-0.5-0.5c-0.3,0-0.5,0.2-0.5,0.5 M120,90.5c0-0.3-0.2-0.5-0.5-0.5     c-0.3,0-0.5,0.2-0.5,0.5"/>
			<path class="st22" d="M120.4,89.2c0-0.5-0.4-0.8-0.9-0.8c-0.5,0-0.8,0.4-0.8,0.8 M124,89.2c0-0.5-0.4-0.8-0.9-0.8     c-0.5,0-0.8,0.4-0.8,0.8"/>
			<path class="st14" d="M124.1,86c0,0-1.1,0.9-3.3,1.4c-2.2,0.5-3.8,0.7-3.8,0.7l-0.1,1l-1,0c0,0-0.4-3,0.3-4.3     c0.7-1.3,1.9-2.4,3.9-2.4c2,0,3.5-0.1,4.6,0.8c1.1,0.9,1.9,2.4,1.9,3.5l0,2.3l-0.8,0c0,0-0.8-0.8-1-1.3     C124.5,87.1,124.1,86,124.1,86L124.1,86z"/>
			<path class="st15" d="M117.1,88.1c1.2-0.2,2.5-0.4,3.7-0.7c2.2-0.5,3.3-1.4,3.3-1.4s0.4,1.2,0.7,1.7c0.2,0.3,0.4,0.6,0.6,0.8     l0-1.6c0-0.9-0.6-2.1-1.4-2.7c-0.9-0.7-2-0.6-3.6-0.6c-1.5,0-2.4,0.8-3,1.8C117.1,85.8,117.1,87,117.1,88.1z"/>
			<path class="st16" d="M124.1,86c0,0-1.1,0.9-3.3,1.4c-2.2,0.5-3.8,0.7-3.8,0.7l-0.1,1l-1,0c0,0-0.4-3,0.3-4.3     c0.7-1.3,1.9-2.4,3.9-2.4c2,0,3.5-0.1,4.6,0.8c1.1,0.9,1.9,2.4,1.9,3.5l0,2.3l-0.8,0c0,0-0.8-0.8-1-1.3     C124.5,87.1,124.1,86,124.1,86L124.1,86z"/>
			<path class="st0" d="M124.1,86.9c0,0-1.1,0.9-3.3,1.4c-2.2,0.5-3.8,0.7-3.8,0.7l-0.1,1l-1,0c0,0-0.4-3,0.3-4.3     c0.7-1.3,1.9-2.4,3.9-2.4s3.5-0.1,4.6,0.8c1.1,0.9,1.9,2.4,1.9,3.5l0,2.3l-0.8,0c0,0-0.8-0.8-1-1.3     C124.5,88.1,124.1,86.9,124.1,86.9L124.1,86.9z"/>
		</g>
	</g>
	<g transform="translate(39.73 12.51)">
		<path class="st5" d="M136.2,68.4V52.9c0-4.6,3.7-8.3,8.4-8.3c0,0,0,0,0,0h99c4.6,0,8.4,3.7,8.4,8.3c0,0,0,0,0,0v136.3    c0,4.6-3.7,8.3-8.4,8.3c0,0,0,0,0,0h-99c-4.6,0-8.4-3.7-8.4-8.3c0,0,0,0,0,0v-80.7 M136.2,98.4V76.9"/>
		<path class="st5" d="M168.6,29.3h50.8c7,0,12.7,5.6,12.7,12.6l0,0c0,6.9-5.7,12.6-12.7,12.6h-50.8c-7,0-12.7-5.6-12.7-12.6l0,0    C155.9,34.9,161.6,29.3,168.6,29.3z"/>
		<path class="st6" d="M173.9,35.1h40.2c4.3,0,7.7,3.4,7.7,7.7l0,0c0,4.2-3.5,7.7-7.7,7.7h-40.2c-4.3,0-7.7-3.4-7.7-7.7l0,0    C166.2,38.6,169.7,35.1,173.9,35.1z"/>
		<path class="st5" d="M191.1,188h-38.6c-4.6,0-8.4-3.7-8.4-8.3c0,0,0,0,0,0v-135h100v135c0,4.6-3.7,8.3-8.4,8.3h-10.6 M225.1,188    h-34"/>
		<path class="st23" d="M156.8,112.7h-12.8V44.5h100v68.2h-37.7 M224.3,112.7h-68"/>
		<path class="st24" d="M158,80.1h-12.4V46.2h96.9v33.9H206 M223.4,80.1h-65.9"/>
		<path class="st6" d="M159.7,122.2h36.2c1.6,0,2.8,1.3,2.8,2.8l0,0c0,1.5-1.3,2.8-2.8,2.8h-36.2c-1.6,0-2.8-1.3-2.8-2.8l0,0    C156.8,123.5,158.1,122.2,159.7,122.2z"/>
		<path class="st8" d="M163.5,134.4h60.8c3.4,0,6.2,2.7,6.2,6.1v0c0,3.4-2.8,6.1-6.2,6.1h-60.8c-3.4,0-6.2-2.7-6.2-6.1v0    C157.3,137.2,160.1,134.4,163.5,134.4z"/>
		<path class="st6" d="M159.7,154.4h36.2c1.6,0,2.8,1.3,2.8,2.8l0,0c0,1.5-1.3,2.8-2.8,2.8h-36.2c-1.6,0-2.8-1.3-2.8-2.8l0,0    C156.8,155.6,158.1,154.4,159.7,154.4z"/>
		<path class="st8" d="M163.5,166.6h60.8c3.4,0,6.2,2.7,6.2,6.1l0,0c0,3.4-2.8,6.1-6.2,6.1h-60.8c-3.4,0-6.2-2.7-6.2-6.1l0,0    C157.3,169.3,160.1,166.6,163.5,166.6z"/>
		<path class="st9" d="M178.2,98.9h33.4c1.6,0,2.8,1.3,2.8,2.8l0,0c0,1.5-1.3,2.8-2.8,2.8h-33.4c-1.6,0-2.8-1.3-2.8-2.8l0,0    C175.4,100.1,176.6,98.9,178.2,98.9z"/>
	</g>
	<g transform="translate(65.624 28.568)">
		<ellipse class="st10" cx="167.6" cy="55.5" rx="19.2" ry="19.1"/>
		<ellipse class="st10" cx="170.3" cy="58.1" rx="19.2" ry="19.1"/>
		<ellipse class="st11" cx="167.6" cy="55.5" rx="19.2" ry="19.1"/>
		<g transform="translate(6.78 3.161)">
			<ellipse class="st12" cx="153" cy="54.8" rx="1.9" ry="1.8"/>
			<ellipse class="st12" cx="169.1" cy="54.8" rx="1.9" ry="1.8"/>
			<path class="st13" d="M156.8,58.1h8.6c1.8,0,3.2,1.4,3.2,3.2l0,0c0,1.7-1.4,3.2-3.2,3.2h-8.6c-1.8,0-3.2-1.4-3.2-3.2l0,0     C153.6,59.5,155,58.1,156.8,58.1z"/>
			<ellipse class="st14" cx="161.2" cy="41.9" rx="3.7" ry="3.7"/>
			<path class="st15" d="M164.8,40.8c0.6,1.9-0.4,4-2.4,4.7c-1.2,0.4-2.6,0.1-3.6-0.7c-0.6-1.9,0.4-4,2.4-4.7     C162.4,39.7,163.8,39.9,164.8,40.8z"/>
			<ellipse class="st16" cx="161.2" cy="41.9" rx="3.7" ry="3.7"/>
			<path class="st12" d="M161,60.3L161,60.3c1,0,1.8,0.8,1.8,1.8v2.8c0,1-0.8,1.8-1.8,1.8l0,0c-1,0-1.8-0.8-1.8-1.8V62     C159.3,61.1,160.1,60.3,161,60.3z"/>
			<path class="st17" d="M161,43.6L161,43.6c4.1,0,7.5,3.3,7.5,7.4v4.9c0,4.1-3.3,7.4-7.5,7.4l0,0c-4.1,0-7.5-3.3-7.5-7.4V51     C153.6,47,156.9,43.6,161,43.6z"/>
			<path class="st18" d="M160.4,55.6v2.1h0.6"/>
			<path class="st19" d="M159.7,59.2c0,0.7,0.6,1.2,1.2,1.2c0.7,0,1.2-0.6,1.2-1.2l0,0"/>
			<path class="st20" d="M158.7,44c-3.1,1-5.1,3.8-5.1,7v2.4c0.6-0.1,3.1-0.7,6.4-1.4c3.8-0.8,5.2-2.1,5.2-2.1s0.7,1.8,1.2,2.7     c0.4,0.8,1.5,1.9,1.5,1.9v-2.3c0,0,0.2,0.1,0.5,0.1v-1.5c0-3.1-1.9-5.8-4.8-6.9c-1.4-0.2-2.9-0.1-4.7-0.1     C158.9,44,158.8,44,158.7,44L158.7,44z"/>
			<path class="st21" d="M165.1,55.8c0-0.5-0.4-0.9-0.9-0.9c-0.5,0-0.9,0.4-0.9,0.9 M158.7,55.8c0-0.5-0.4-0.9-0.9-0.9     c-0.5,0-0.9,0.4-0.9,0.9"/>
			<path class="st22" d="M159.3,53.6c0-0.8-0.6-1.4-1.4-1.4c0,0,0,0,0,0c-0.8,0-1.4,0.6-1.4,1.4c0,0,0,0,0,0 M165.5,53.6     c0-0.8-0.6-1.4-1.4-1.4c0,0,0,0,0,0c-0.8,0-1.4,0.6-1.4,1.4c0,0,0,0,0,0"/>
			<path class="st14" d="M165.6,48.2c0,0-1.8,1.5-5.6,2.3c-3.8,0.8-6.3,1.2-6.3,1.2l-0.2,1.7h-1.6c0,0-0.7-5,0.5-7.1     c1.2-2.2,3.2-4,6.6-4c3.3,0,5.9-0.2,7.8,1.3c1.9,1.4,3.1,4,3.1,5.9v3.8h-1.4c0,0-1.3-1.4-1.8-2.2     C166.2,50.2,165.6,48.2,165.6,48.2z"/>
			<path class="st15" d="M153.8,51.7c2.1-0.3,4.2-0.7,6.2-1.2c3.8-0.8,5.6-2.3,5.6-2.3s0.6,2,1.1,2.9c0.2,0.4,0.6,0.9,1,1.4v-2.8     c0-1.4-1-3.5-2.4-4.6c-1.4-1.1-3.4-1-6-1c-2.6,0-4.1,1.4-5.1,3.1C153.9,48,153.8,49.9,153.8,51.7L153.8,51.7z"/>
			<path class="st16" d="M165.6,48.2c0,0-1.8,1.5-5.6,2.3c-3.8,0.8-6.3,1.2-6.3,1.2l-0.1,1.7h-1.6c0,0-0.7-5,0.5-7.1     c1.2-2.2,3.2-4,6.6-4c3.3,0,5.9-0.2,7.8,1.3c1.9,1.4,3.1,4,3.1,5.9v3.8h-1.4c0,0-1.3-1.4-1.8-2.2     C166.2,50.2,165.6,48.2,165.6,48.2L165.6,48.2z"/>
			<path class="st0" d="M165.6,49.9c0,0-1.8,1.5-5.6,2.3c-3.8,0.8-6.3,1.2-6.3,1.2l-0.1,1.7h-1.6c0,0-0.7-5,0.5-7.1     c1.2-2.2,3.2-4,6.6-4c3.3,0,5.9-0.2,7.8,1.3c1.9,1.4,3.1,4,3.1,5.9V55h-1.4c0,0-1.3-1.4-1.8-2.2     C166.2,51.9,165.6,49.9,165.6,49.9L165.6,49.9z"/>
		</g>
	</g>
	<g transform="scale(-1 1) rotate(-45 42.596 206.441)">
		<path class="st5" d="M-163.2-39.6c1.4-1.4,3.7-1.4,5.2,0l4.7,4.7c1.4,1.4,1.6,3.9,0.5,5.5l-5.5,7.6c-1.2,1.6-3.1,1.6-4.3,0    l-5.6-7.7c-1.2-1.6-1-4.1,0.4-5.5C-167.8-35-163.2-39.6-163.2-39.6z"/>
		<path class="st25" d="M-160.4-80.7L-160.4-80.7c4.9,0,8.8,4,8.8,8.8l0.1,31.9c0,4.9-3.9,8.8-8.8,8.8l0,0c-4.9,0-8.8-4-8.8-8.8    l-0.1-31.9C-169.2-76.8-165.2-80.7-160.4-80.7z"/>
		<path class="st26" d="M-165.4-71.3c0-2.8,2.2-5,5-5c0,0,0,0,0,0 M-157.3-32.4l-0.2-39 M-164.4-32.4l-0.1-33.2"/>
	</g>
</g>
</svg>
