<svg xmlns="http://www.w3.org/2000/svg" xmlns:xlink="http://www.w3.org/1999/xlink" width="44px" height="35px" viewBox="0 0 44 35" version="1.1">
    <!-- Generator: Sketch 41.1 (35376) - http://www.bohemiancoding.com/sketch -->
    <title>data ownership</title>
    <desc>Created with Sketch.</desc>
    <defs/>
    <g id="Page-1" stroke="none" stroke-width="1" fill="none" fill-rule="evenodd">
        <g id="Icons" transform="translate(-592.000000, -231.000000)">
            <g id="data-ownership" transform="translate(591.000000, 224.000000)">
                <rect id="Rectangle-22" x="0.174173414" y="0" width="45" height="45"/>
                <g id="Group-2" transform="translate(2.000000, 7.060994)">
                    <path d="M7.31208645,18.6467771 L5.75502362,29.7019232 C5.43228649,31.9933569 7.04906378,33.8586284 9.36753416,33.8586284 L34.2507311,33.8586284 C36.570135,33.8586284 38.7110834,31.9956576 39.0347582,29.6975667 L39.1049938,29.1988934 L39.6421767,25.384895 L41.093763,15.0786323 C41.1982859,14.33652 41.1004504,13.6399453 40.8419921,13.0368696 L41.413898,9.60543422 C41.5608515,8.72371285 40.9568022,8.0107675 40.0650925,8.0107675 L32.4704672,8.0107675 C31.5786527,8.0107675 30.7368912,8.72472411 30.5901062,9.60543422 L30.3712366,10.9186519 L30.3712366,10.9186519 L12.5985168,10.9186519 C10.2791129,10.9186519 8.13842051,12.7798053 7.81506147,15.0756545 L7.6516328,16.2359981" id="Combined-Shape" stroke="#404F54" stroke-width="1.5" stroke-linecap="round" fill="#FFFFFF"/>
                    <path d="M9.44819692,19.9052337 C9.75294934,17.1624618 12.2303666,14.9390059 15.0044356,14.9390059 L34.9955644,14.9390059 C37.7594379,14.9390059 39.7527548,17.1642126 39.4481969,19.9052337 L38.5518031,27.9727782 C38.2470507,30.71555 35.7696334,32.9390059 32.9955644,32.9390059 L13.0044356,32.9390059 C10.2405621,32.9390059 8.24724519,30.7137992 8.55180308,27.9727782 L9.44819692,19.9052337 Z" id="Rectangle-2" fill="#E0EAEF"/>
                    <path d="M0.756868156,23.2594519 L0.42076906,22.5072301 C-0.525384245,20.3896489 0.58616506,18.6730101 2.90556893,18.6730101 L27.7887659,18.6730101 C30.1072363,18.6730101 32.7551605,20.3928356 33.6988859,22.5049828 L37.0596334,30.0266557 C38.0052321,32.1429958 36.8932333,33.8586284 34.5738294,33.8586284 L9.69063242,33.8586284 C7.37216204,33.8586284 4.72579044,32.1422779 3.77883241,30.0228957 L2.08496132,26.2318509" id="Rectangle-21-Copy-6" stroke="#404F54" stroke-width="1.5" stroke-linecap="round" stroke-linejoin="round" fill="#FFFFFF"/>
                    <path d="M5.44239251,3.02971966 C3.93912183,4.4397881 3,6.44417317 3,8.66790189 C3,12.9364533 6.46034459,16.3967979 10.728896,16.3967979 L10.728896,16.3967979 C14.9974474,16.3967979 18.4577919,12.9364533 18.4577919,8.66790189 C18.4577919,4.39935051 14.9974474,0.939005914 10.728896,0.939005914 C10.0141545,0.939005914 9.32207297,1.03602481 8.66510235,1.21761167" id="Oval-2" stroke="#404F54" stroke-width="1.5" stroke-linecap="round" fill="#5e5e5e"/>
                    <polyline id="Path-80" stroke="#FFFFFF" stroke-width="1.5" stroke-linecap="round" stroke-linejoin="round" points="8.06107911 8.8161318 10.5721299 11.0525399 14.2985444 6.8788661"/>
                    <polyline id="Path-2" stroke="#4d90cc" stroke-width="1.5" stroke-linecap="round" stroke-linejoin="round" points="11.9491958 28.2212829 14.1573834 25.522387 19.259728 28.4804383 22.3046755 24.6053757"/>
                </g>
            </g>
        </g>
    </g>
</svg>
