<svg xmlns="http://www.w3.org/2000/svg" xmlns:xlink="http://www.w3.org/1999/xlink" width="468px" height="275px" viewBox="0 0 468 275" version="1.1">
    <!-- Generator: Sketch 50.2 (55047) - http://www.bohemiancoding.com/sketch -->
    <title>illustration_quiz</title>
    <desc>Created with Sketch.</desc>
    <defs/>
    <g id="illustration_quiz" stroke="none" stroke-width="1" fill="none" fill-rule="evenodd">
        <g id="bg-ilustrasi" opacity="0.4734375">
            <path d="M90.7739666,132.757344 C90.7739666,132.757344 91.9683447,134.637344 92.724284,135.393284 C93.5034925,136.172492 95.37941,137.362788 95.37941,137.362788 C95.37941,137.362788 93.470562,138.621938 92.724284,139.368216 C91.9354142,140.157086 90.7739666,141.968231 90.7739666,141.968231 C90.7739666,141.968231 89.6042184,140.09939 88.873045,139.368216 C88.0690706,138.564242 86.1685232,137.362788 86.1685232,137.362788 C86.1685232,137.362788 88.0813855,136.184943 88.873045,135.393284 C89.6165334,134.649795 90.7739666,132.757344 90.7739666,132.757344 Z" id="Polygon" fill="#DAE2E6"/>
            <path d="M332.734949,241.233166 C332.734949,241.233166 333.71418,242.774517 334.33395,243.394287 C334.972798,244.033134 336.510802,245.009019 336.510802,245.009019 C336.510802,245.009019 334.945799,246.041356 334.33395,246.653205 C333.687182,247.299973 332.734949,248.784872 332.734949,248.784872 C332.734949,248.784872 331.77591,247.25267 331.176445,246.653205 C330.517293,245.994052 328.959096,245.009019 328.959096,245.009019 C328.959096,245.009019 330.527389,244.043343 331.176445,243.394287 C331.786007,242.784725 332.734949,241.233166 332.734949,241.233166 Z" id="Polygon-Copy-9" fill="#DAE2E6"/>
            <path d="M363.921291,60.9454628 C363.921291,60.9454628 365.171289,62.91301 365.96243,63.7041518 C366.777925,64.5196462 368.7412,65.7653714 368.7412,65.7653714 C368.7412,65.7653714 366.743461,67.0831577 365.96243,67.8641881 C365.136825,68.6897939 363.921291,70.5852799 363.921291,70.5852799 C363.921291,70.5852799 362.69707,68.6294106 361.931848,67.8641881 C361.090434,67.0227744 359.101382,65.7653714 359.101382,65.7653714 C359.101382,65.7653714 361.103322,64.532677 361.931848,63.7041518 C362.709959,62.9260409 363.921291,60.9454628 363.921291,60.9454628 Z" id="Polygon-Copy-8" fill="#DAE2E6"/>
            <path d="M50.7360367,191.972191 C50.7360367,191.972191 51.6575426,193.422679 52.2407772,194.005913 C52.8419647,194.607101 54.289303,195.525457 54.289303,195.525457 C54.289303,195.525457 52.8165576,196.496937 52.2407772,197.072718 C51.6321355,197.681359 50.7360367,199.078723 50.7360367,199.078723 C50.7360367,199.078723 49.8335337,197.636844 49.2694069,197.072718 C48.6491116,196.452422 47.1827705,195.525457 47.1827705,195.525457 C47.1827705,195.525457 48.658613,194.616707 49.2694069,194.005913 C49.8430351,193.432285 50.7360367,191.972191 50.7360367,191.972191 Z" id="Polygon-Copy-7" fill="#DAE2E6"/>
            <path d="M131.746277,244.26457 C131.746277,244.26457 132.810985,245.940463 133.484854,246.614332 C134.179466,247.308944 135.851721,248.370013 135.851721,248.370013 C135.851721,248.370013 134.150111,249.492461 133.484854,250.157718 C132.78163,250.860942 131.746277,252.475457 131.746277,252.475457 C131.746277,252.475457 130.703525,250.80951 130.051733,250.157718 C129.335044,249.441029 127.640834,248.370013 127.640834,248.370013 C127.640834,248.370013 129.346022,247.320044 130.051733,246.614332 C130.714503,245.951563 131.746277,244.26457 131.746277,244.26457 Z" id="Polygon-Copy" fill="#DAE2E6"/>
            <path d="M230.197229,51.6287635 C230.197229,51.6287635 231.132266,53.1005508 231.724065,53.6923497 C232.334081,54.3023653 233.802672,55.2342069 233.802672,55.2342069 C233.802672,55.2342069 232.308301,56.2199526 231.724065,56.8041879 C231.106486,57.4217671 230.197229,58.8396503 230.197229,58.8396503 C230.197229,58.8396503 229.281473,57.3765985 228.709063,56.8041879 C228.079659,56.174784 226.591786,55.2342069 226.591786,55.2342069 C226.591786,55.2342069 228.0893,54.3121127 228.709063,53.6923497 C229.291114,53.1102983 230.197229,51.6287635 230.197229,51.6287635 Z" id="Polygon-Copy-3" fill="#DAE2E6"/>
            <path d="M293.787289,54.2676523 C293.787289,54.2676523 294.722326,55.7394396 295.314125,56.3312385 C295.924141,56.941254 297.392732,57.8730957 297.392732,57.8730957 C297.392732,57.8730957 295.898361,58.8588414 295.314125,59.4430767 C294.696546,60.0606558 293.787289,61.4785391 293.787289,61.4785391 C293.787289,61.4785391 292.871533,60.0154873 292.299123,59.4430767 C291.669719,58.8136728 290.181845,57.8730957 290.181845,57.8730957 C290.181845,57.8730957 291.67936,56.9510015 292.299123,56.3312385 C292.881174,55.749187 293.787289,54.2676523 293.787289,54.2676523 Z" id="Polygon-Copy-6" fill="#DAE2E6"/>
            <path d="M67.82355,58.8906977 C67.82355,58.8906977 68.5659465,60.0592601 69.0358201,60.5291338 C69.5201573,61.0134709 70.6861822,61.7533299 70.6861822,61.7533299 C70.6861822,61.7533299 69.4996884,62.5359874 69.0358201,62.9998557 C68.5454777,63.4901981 67.82355,64.6159621 67.82355,64.6159621 C67.82355,64.6159621 67.0964629,63.4543354 66.6419832,62.9998557 C66.1422521,62.5001247 64.9609179,61.7533299 64.9609179,61.7533299 C64.9609179,61.7533299 66.1499068,61.0212101 66.6419832,60.5291338 C67.1041175,60.0669994 67.82355,58.8906977 67.82355,58.8906977 Z" id="Polygon-Copy-2" fill="#DAE2E6"/>
            <path d="M223.729153,252.728493 C223.729153,252.728493 224.47155,253.897055 224.941423,254.366929 C225.425761,254.851266 226.591786,255.591125 226.591786,255.591125 C226.591786,255.591125 225.405292,256.373783 224.941423,256.837651 C224.451081,257.327993 223.729153,258.453757 223.729153,258.453757 C223.729153,258.453757 223.002066,257.292131 222.547586,256.837651 C222.047855,256.33792 220.866521,255.591125 220.866521,255.591125 C220.866521,255.591125 222.05551,254.859005 222.547586,254.366929 C223.009721,253.904795 223.729153,252.728493 223.729153,252.728493 Z" id="Polygon-Copy-5" fill="#DAE2E6"/>
            <path d="M390.944501,145.560052 L397.090501,140.630015" id="Path-66" stroke="#DAE2E6" stroke-width="2" fill="#DAE2E6" stroke-linecap="round"/>
            <path d="M96.056343,91.9453111 L89.15932,85.0482881" id="Path-67" stroke="#DAE2E6" stroke-width="2" fill="#DAE2E6" stroke-linecap="round"/>
            <path d="M86.2645251,236.656036 L77.1810049,241.993041" id="Path-68" stroke="#DAE2E6" stroke-width="2" fill="#DAE2E6" stroke-linecap="round"/>
            <path d="M315.367098,270.307671 L321.349485,270.307671" id="Path-69" stroke="#DAE2E6" stroke-width="2" fill="#DAE2E6" stroke-linecap="round"/>
            <path d="M147.169467,264.602317 C148.623396,262.166449 149.458774,259.318641 149.458774,256.27572 C149.458774,247.290328 142.174675,240.006229 133.189283,240.006229 C126.214169,240.006229 120.264252,244.395622 117.951066,250.562874" id="Oval-22" stroke="#DAE2E6" stroke-width="2" stroke-linecap="round" stroke-linejoin="round"/>
            <path d="M350.40633,265.245237 C352.04484,262.500128 352.986271,259.290782 352.986271,255.861554 C352.986271,245.735439 344.777433,237.5266 334.651318,237.5266 C326.790692,237.5266 320.085416,242.47324 317.478563,249.423444" id="Oval-22-Copy-10" stroke="#DAE2E6" stroke-width="2" stroke-linecap="round" stroke-linejoin="round"/>
            <path d="M104.200101,39.7218557 C104.200101,42.469828 106.427772,44.6974997 109.175745,44.6974997 L109.175745,44.6974997 C111.923717,44.6974997 114.151389,42.469828 114.151389,39.7218557 C114.151389,36.9738834 111.923717,34.7462117 109.175745,34.7462117" id="Oval-22-Copy-3" stroke="#DAE2E6" stroke-width="2" stroke-linecap="round" stroke-linejoin="round"/>
            <circle id="Oval-22-Copy-8" stroke="#DAE2E6" stroke-width="2" stroke-linecap="round" stroke-linejoin="round" cx="287.225875" cy="258.184418" r="3.475644"/>
            <circle id="Oval-22-Copy-7" stroke="#DAE2E6" stroke-width="2" stroke-linecap="round" stroke-linejoin="round" cx="204.648102" cy="3.65848757" r="3.46000222"/>
            <path d="M91.2462774,208.805333 C91.2462774,203.870585 89.9500592,199.238584 87.6795287,195.231237 M82.9858114,189.124312 C78.0107675,184.241143 71.1923318,181.229559 63.6705029,181.229559 C49.3664607,181.229559 37.6061354,192.120505 36.2294244,206.062501" id="Oval-22-Copy" stroke="#DAE2E6" stroke-width="2" stroke-linecap="round" stroke-linejoin="round"/>
            <path d="M377.511009,79.3779088 C377.747966,77.923564 377.871161,76.4310137 377.871161,74.9096897 C377.871161,59.68001 365.525066,47.3339152 350.295387,47.3339152 C337.841032,47.3339152 327.315062,55.5903109 323.892326,66.9282533" id="Oval-22-Copy-6" stroke="#DAE2E6" stroke-width="2" stroke-linecap="round" stroke-linejoin="round"/>
            <path d="M382.93601,86.5374944 C382.93601,82.6987891 379.824125,79.5869036 375.985419,79.5869036 C372.146714,79.5869036 369.034828,82.6987891 369.034828,86.5374944" id="Oval-22-Copy-9" stroke="#DAE2E6" stroke-width="2" stroke-linecap="round" stroke-linejoin="round"/>
            <path d="M47.4898673,211.946113 C45.4385804,208.721743 41.8335683,206.582517 37.7289131,206.582517 C31.3442861,206.582517 26.1685232,211.75828 26.1685232,218.142907" id="Oval-22-Copy-2" stroke="#DAE2E6" stroke-width="2" stroke-linecap="round" stroke-linejoin="round"/>
        </g>
        <g id="quiz" transform="translate(125.000000, 31.000000)">
            <g id="quizz" transform="translate(88.000000, 108.500000) rotate(-14.000000) translate(-88.000000, -108.500000) translate(21.000000, 14.000000)">
                <path d="M21.936447,23 L21.936447,15.3433083 C21.936447,10.3724501 25.9750316,6.34277344 30.9271635,6.34277344 L94.9490057,6.34277344 C99.9144414,6.34277344 103.939722,10.3731151 103.939722,15.3433083 L103.939722,23 L116.23774,23 C121.207307,23 125.235936,27.021142 125.235936,31.99848 L125.235936,180.00152 C125.235936,184.971243 121.214013,189 116.23774,189 L9.63842885,189 C4.66886253,189 0.640233046,184.978858 0.640233046,180.00152 L0.640233046,31.99848 C0.640233046,27.0287567 4.66215619,23 9.63842885,23 L21.936447,23 Z" id="Combined-Shape" fill="#E0EAEF"/>
                <path d="M8.64023305,42.7294922 L8.64023305,25.9989278 L8.64023305,25.9989278 C8.64023305,21.0289572 12.6621562,17 17.6384289,17 L124.23774,17 C129.207307,17 133.235936,21.021142 133.235936,25.99848 L133.235936,174.00152 C133.235936,178.971243 129.214013,183 124.23774,183 L17.6384289,183 C12.6688625,183 8.64023305,178.973388 8.64023305,174.004739 L8.64023305,93.6669922 M8.64023305,75.3730469 L8.64023305,51.9550781" id="Rectangle-2-Copy-7" stroke="#404F54" stroke-width="2" fill="#FFFFFF" stroke-linecap="round"/>
                <rect id="Rectangle-2-Copy-6" stroke="#404F54" stroke-width="2" fill="#FFFFFF" stroke-linecap="round" x="29.936447" y="0.342773437" width="82.0032753" height="27.3144531" rx="9"/>
                <rect id="Rectangle-2-Copy-4" fill="#E0EAEF" x="40.9675295" y="6.67255464" width="59.9411102" height="16.6548907" rx="7"/>
                <path d="M67.7275391,172.609375 L26.1372871,172.609375 C21.166194,172.609375 17.1363268,168.588835 17.1363268,163.603806 L17.1363268,17.0823696 L17.1363268,17.0823696 L124.767578,17.0823696 L124.767578,163.603806 C124.767578,168.577444 120.733452,172.609375 115.766957,172.609375 L104.348633,172.609375 M94.5126953,172.609375 L75.2441406,172.609375" id="Rectangle-2-Copy" stroke="#404F54" stroke-width="2" fill="#FFFFFF" stroke-linecap="round"/>
                <circle id="Oval-13" stroke="#404F54" stroke-width="2" fill="#FFFFFF" stroke-linecap="round" cx="33.2277656" cy="90.064" r="6.22776562"/>
                <circle id="Oval-13-Copy-3" fill="#4d90cc" cx="33.2277656" cy="90.064" r="3.0058418"/>
                <path d="M30.7617188,70 L17,70 L17,17 L17,17 L124.631251,17 L124.631251,70 L84.0957031,70 M67.2597656,70 L42.2070313,70" id="Rectangle-15" stroke="#404F54" stroke-width="2" fill="#F5F6F7" stroke-linecap="round"/>
                <rect id="Rectangle-7" fill="#E0EAEF" x="52" y="82" width="60" height="6.064" rx="3.032"/>
                <rect id="Rectangle-7-Copy-2" fill="#E0EAEF" x="52" y="92" width="42" height="6.064" rx="3.032"/>
                <rect id="Rectangle-7-Copy-8" fill="#E0EAEF" x="52" y="41" width="60" height="6.064" rx="3.032"/>
                <rect id="Rectangle-7-Copy-9" fill="#E0EAEF" x="52" y="31" width="60" height="6.064" rx="3.032"/>
                <rect id="Rectangle-7-Copy-7" fill="#E0EAEF" x="52" y="51" width="42" height="6.064" rx="3.032"/>
                <path d="M27,120.064 C27,123.5035 29.7882656,126.291766 33.2277656,126.291766 L33.2277656,126.291766 C36.6672656,126.291766 39.4555313,123.5035 39.4555313,120.064 C39.4555313,116.6245 36.6672656,113.836234 33.2277656,113.836234" id="Oval-13-Copy" stroke="#404F54" stroke-width="2" fill="#FFFFFF" stroke-linecap="round"/>
                <rect id="Rectangle-7-Copy-4" fill="#E0EAEF" x="52" y="112" width="60" height="6.064" rx="3.032"/>
                <rect id="Rectangle-7-Copy-3" fill="#E0EAEF" x="52" y="122" width="42" height="6.064" rx="3.032"/>
                <circle id="Oval-13-Copy-2" stroke="#404F54" stroke-width="2" fill="#FFFFFF" stroke-linecap="round" cx="33.2277656" cy="150.064" r="6.22776562"/>
                <rect id="Rectangle-7-Copy-6" fill="#E0EAEF" x="52" y="142" width="60" height="6.064" rx="3.032"/>
                <rect id="Rectangle-7-Copy-5" fill="#E0EAEF" x="52" y="152" width="42" height="6.064" rx="3.032"/>
                <path d="M42.368,53.312 L44.192,53.264 L44.672,53.312 L45.104,53.312 L45.56,53.192 L45.68,52.688 L45.368,52.232 L44.072,50.744 L43.784,50.288 L43.472,49.952 L43.328,49.328 L43.328,48.728 L43.736,47.816 L43.856,47.312 L44.024,46.904 L44.216,45.416 L44.264,44.6 L44.216,43.928 L44.12,43.4 L44.12,42.992 L44.024,42.488 L43.592,41.096 L42.968,39.848 L42.104,38.672 L41.792,38.36 L41.048,37.712 L39.056,36.56 L37.208,36.032 L36.272,35.936 L35.576,35.984 L34.4,36.008 L33.896,36.104 L33.44,36.248 L32.984,36.296 L32.072,36.584 L30.008,37.736 L29.024,38.72 L27.872,40.28 L27.68,40.664 L27.56,41.168 L27.368,41.552 L27.08,42.512 L27.056,42.992 L26.936,43.472 L26.888,45.344 L26.984,46.28 L27.344,47.72 L27.728,48.536 L27.872,48.992 L28.16,49.4 L28.376,49.856 L28.664,50.144 L28.976,50.576 L30.056,51.536 L31.232,52.304 L31.712,52.448 L32.096,52.712 L32.984,52.904 L33.464,53.048 L33.896,53.144 L35.576,53.264 L36.32,53.24 L36.8,53.264 L37.328,53.12 L37.736,52.976 L39.2,52.568 L39.824,52.568 L40.856,53.12 L41.456,53.264 L41.888,53.264 L42.368,53.312 Z M35.528,49.064 L33.848,48.848 L33.392,48.608 L33.008,48.368 L32.264,47.624 L31.976,47.168 L31.568,46.352 L31.448,45.896 L31.328,44.648 L31.352,43.904 L31.568,42.92 L32.024,41.984 L32.288,41.576 L32.6,41.24 L33.44,40.688 L34.064,40.4 L34.808,40.136 L36.344,40.208 L36.992,40.4 L37.64,40.64 L38.072,40.952 L38.816,41.624 L39.128,42.08 L39.344,42.488 L39.68,43.376 L39.752,44.624 L39.704,45.416 L39.536,46.304 L39.344,46.808 L39.104,47.24 L38.792,47.648 L38.456,47.96 L37.664,48.584 L36.728,48.968 L35.528,49.064 Z" id="Q" fill="#5e5e5e"/>
            </g>
            <g id="pencil" transform="translate(172.898258, 135.445984) rotate(-318.000000) translate(-172.898258, -135.445984) translate(149.398258, 94.445984)">
                <path d="M15.9411477,61.2203666 C15.9411477,59.8398138 17.066107,58.7206547 18.4408596,58.7206547 L29.4395921,58.7206547 C30.8201449,58.7206547 32.1180094,59.8286384 32.3383532,61.1947823 L34.6167891,75.3212176 C34.8371779,76.6876406 33.9078545,77.6166399 32.5417106,77.3962962 L18.4152753,75.1178602 C17.0488523,74.8974714 15.9411477,73.5938518 15.9411477,72.2190991 L15.9411477,61.2203666 Z" id="Rectangle-7" stroke="#404F54" stroke-width="2" fill="#FFFFFF" stroke-linecap="round" transform="translate(25.295140, 68.074645) rotate(-315.000000) translate(-25.295140, -68.074645) "/>
                <path d="M15.1430376,18.5266409 C15.1430376,14.6623484 18.2710547,11.5297204 22.144766,11.5297204 L28.445399,11.5297204 C32.3123468,11.5297204 35.4471274,14.6584934 35.4471274,18.5266409 L35.4471274,67.601296 C35.4471274,68.1482886 35.0041649,68.5917137 34.4402444,68.5917137 L16.1499206,68.5917137 C15.5938345,68.5917137 15.1430376,68.1489521 15.1430376,67.601296 L15.1430376,18.5266409 Z" id="Rectangle" stroke="#404F54" stroke-width="2" fill="#FFFFFF" stroke-linecap="round"/>
                <path d="M17.9675885,18.6746693 C17.9675885,14.8103769 21.0956055,11.6777489 24.9693169,11.6777489 L31.2699498,11.6777489 C35.1368976,11.6777489 38.2716782,14.8065218 38.2716782,18.6746693 L38.2716782,67.7493244 C38.2716782,68.296317 37.8287157,68.7397422 37.2647953,68.7397422 L18.9744715,68.7397422 C18.4183854,68.7397422 17.9675885,68.2969805 17.9675885,67.7493244 L17.9675885,18.6746693 Z" id="Rectangle-Copy-3" fill="#5e5e5e"/>
                <path d="M19.4902429,22.2946331 C19.4902429,19.0918673 22.0870526,16.4955126 25.2950825,16.4955126" id="Rectangle-Copy" stroke="#FFFFFF" stroke-width="2" stroke-linecap="round"/>
                <path d="M29.1843798,69.3015271 L29.1843798,24.3014588" id="Path-40" stroke="#FFFFFF" stroke-width="2" stroke-linecap="round"/>
                <path d="M21.9329192,69.3015271 L21.9329192,30.9349979" id="Path-40-Copy" stroke="#FFFFFF" stroke-width="2" stroke-linecap="round"/>
                <path d="M15.1430376,18.5266409 C15.1430376,14.6623484 18.2710547,11.5297204 22.144766,11.5297204 L28.445399,11.5297204 C32.3123468,11.5297204 35.4471274,14.6584934 35.4471274,18.5266409 L35.4471274,67.601296 C35.4471274,68.1482886 35.0041649,68.5917137 34.4402444,68.5917137 L16.1499206,68.5917137 C15.5938345,68.5917137 15.1430376,68.1489521 15.1430376,67.601296 L15.1430376,18.5266409 Z" id="Rectangle-Copy-2" stroke="#404F54" stroke-width="2" stroke-linecap="round"/>
                <path d="" id="Path-41" stroke="#FF0000" stroke-width="2"/>
                <path d="M38.5812612,13.77721 L46.3429294,6.16044145" id="Path-46" stroke="#5e5e5e" stroke-width="2" stroke-linecap="round"/>
                <path d="M9.21274694,18.1569158 L0.0677711414,5.75322842" id="Path-49" stroke="#5e5e5e" stroke-width="2" stroke-linecap="round"/>
                <path d="M18.2882751,6.62339287 L16.3130278,0.729030369" id="Path-50" stroke="#5e5e5e" stroke-width="2" stroke-linecap="round"/>
            </g>
            <circle id="Oval-10" fill="#FFFFFF" cx="140.591797" cy="58.7329453" r="28.5917969"/>
            <circle id="Oval-10-Copy-2" fill="#6aace6" cx="142.591797" cy="60.7329453" r="28.5917969"/>
            <circle id="Oval-10-Copy-3" fill="#4d90cc" cx="143.362471" cy="62.5036197" r="21.8211225"/>
            <path d="M116.703565,43.0159013 C114.829958,45.8578372 113.449879,49.0539058 112.685352,52.4820829 M112,58.7329453 C112,74.5237587 124.800983,87.3247422 140.591797,87.3247422 L140.591797,87.3247422 C156.38261,87.3247422 169.183594,74.5237587 169.183594,58.7329453 C169.183594,42.9421319 156.38261,30.1411484 140.591797,30.1411484 C135.004153,30.1411484 129.790873,31.7439946 125.386661,34.5149838" id="Oval-10-Copy" stroke="#404F54" stroke-width="2" stroke-linecap="round"/>
            <path d="M129.4,68.352 L129.364,68.892 L130.012,69.216 L134.872,69.252 L135.844,68.928 L136.6,68.352 L137.248,67.056 L138.148,65.904 L138.4,65.148 L143.044,57.48 L144.34,54.564 L144.592,53.124 L144.556,51.036 L144.304,49.524 L143.548,47.472 L143.116,46.824 L142.612,46.32 L141.568,45.348 L140.56,44.736 L138.976,44.016 L138.184,43.872 L137.572,43.656 L134.944,43.44 L131.668,43.8 L131.02,43.98 L128.896,44.916 L127.312,46.356 L126.196,48.156 L125.476,50.28 L125.404,51.036 L125.476,53.844 L126.124,56.004 L126.52,56.58 L126.808,57.156 L128.428,58.704 L129.58,59.46 L131.704,60.072 L132.352,60.18 L133.072,60.18 L133.576,60.54 L133.72,61.116 L133.324,61.656 L133,62.304 L132.496,62.88 L132.28,63.42 L131.56,64.716 L131.092,65.256 L130.588,66.516 L130.156,67.092 L129.4,68.352 Z M136.096,55.176 L133.936,55.14 L133.18,54.888 L132.64,54.492 L132.244,53.952 L131.956,53.232 L131.92,52.08 L131.992,51 L132.208,50.352 L132.64,49.74 L133.18,49.308 L133.792,49.056 L134.908,49.02 L136.096,49.092 L136.708,49.308 L137.428,49.74 L137.788,50.388 L138.04,51.072 L138.112,53.196 L137.788,53.88 L137.32,54.384 L136.816,54.852 L136.096,55.176 Z" id="9" fill="#FFFFFF"/>
            <path d="M139.848,75 L140.31,74.86 L140.576,74.622 L140.674,74.384 L140.814,74.146 L140.926,73.838 L141.332,73.138 L141.528,72.592 L141.794,72.144 L142.886,69.848 L143.026,69.638 L143.124,69.372 L143.74,68.084 L143.838,67.832 L144.482,66.6 L144.566,66.362 L144.93,65.592 L144.93,65.354 L144.734,65.228 L144.468,65.2 L144.174,65.256 L143.628,65.214 L143.096,65.228 L142.746,65.312 L142.522,65.564 L141.402,67.86 L141.304,68.126 L141.15,68.35 L141.038,68.616 L140.884,68.854 L140.66,69.358 L140.562,69.624 L138.112,74.608 L138.126,74.902 L138.476,75 L138.756,75.042 L139.162,75.028 L139.428,74.986 L139.848,75 Z M146.498,74.622 L146.596,74.888 L146.932,75.042 L149.116,75 L149.382,75.028 L151.314,75.014 L151.58,75.042 L151.888,74.902 L152,74.608 L152.042,74.356 L152.056,74.062 L152.014,73.796 L152.028,73.306 L151.874,73.012 L151.636,72.872 L150.838,72.872 L150.558,72.732 L150.474,72.438 L150.446,71.304 L150.46,71.024 L150.46,70.772 L150.502,70.464 L150.488,70.184 L150.516,69.918 L150.46,69.638 L150.474,69.316 L150.516,69.05 L150.474,68.77 L150.502,68.49 L150.46,67.356 L150.516,67.076 L150.446,66.768 L150.502,66.502 L150.502,66.208 L150.46,65.928 L150.474,65.662 L150.334,65.368 L150.012,65.186 L149.186,65.228 L148.906,65.2 L147.114,65.214 L146.848,65.34 L146.722,65.634 L146.708,66.138 L146.666,66.376 L146.722,66.642 L146.722,66.95 L146.834,67.216 L147.1,67.328 L147.492,67.328 L147.912,67.468 L148.066,67.762 L148.024,69.68 L148.066,70.24 L148.024,70.52 L148.024,70.8 L148.052,71.08 L148.01,72.06 L148.066,72.466 L147.912,72.76 L147.702,72.886 L147.422,72.9 L146.89,72.872 L146.652,73.012 L146.47,73.278 L146.47,73.572 L146.498,73.838 L146.498,74.104 L146.47,74.342 L146.498,74.622 Z M157.25,75.154 L157.712,75.182 L158.244,75.14 L158.902,75 L159.42,74.804 L160.19,74.384 L160.386,74.174 L160.862,73.53 L161.156,73.012 L161.282,72.494 L161.324,68.028 L161.212,67.454 L161.086,67.188 L160.988,66.908 L160.736,66.474 L160.526,66.25 L160.4,66.04 L160.176,65.844 L159.434,65.424 L159.196,65.312 L158.902,65.214 L158.37,65.102 L157.264,65.06 L156.144,65.298 L155.892,65.396 L155.668,65.55 L155.402,65.69 L154.982,66.054 L154.8,66.264 L154.59,66.46 L154.464,66.684 L154.352,66.936 L154.016,68.014 L154.002,68.84 L154.058,69.148 L153.988,69.974 L154.044,70.254 L154.002,70.534 L154.044,70.814 L154.058,72.508 L154.198,73.04 L154.338,73.292 L154.436,73.53 L154.786,73.964 L154.968,74.174 L155.192,74.37 L155.444,74.51 L155.64,74.664 L155.92,74.818 L156.676,75.056 L157.25,75.154 Z M158.118,72.872 L157.67,72.928 L157.25,72.886 L156.956,72.788 L156.76,72.662 L156.592,72.438 L156.494,72.158 L156.382,71.724 L156.382,68.462 L156.452,68.056 L156.592,67.79 L156.774,67.594 L157.236,67.342 L158.09,67.328 L158.356,67.426 L158.594,67.594 L158.748,67.818 L158.846,68.07 L158.916,68.476 L158.972,69.148 L158.916,70.254 L158.972,70.506 L158.93,70.786 L158.916,71.066 L158.958,71.304 L158.944,71.724 L158.874,72.158 L158.79,72.41 L158.58,72.634 L158.37,72.774 L158.118,72.872 Z" id="/10" fill="#FFFFFF"/>
            <path d="" id="Path-17" stroke="#FF0000" stroke-width="2"/>
        </g>
    </g>
</svg>
