<svg xmlns="http://www.w3.org/2000/svg" xmlns:xlink="http://www.w3.org/1999/xlink" width="468px" height="275px" viewBox="0 0 468 275" version="1.1">
    <!-- Generator: Sketch 50.2 (55047) - http://www.bohemiancoding.com/sketch -->
    <title>illustration_certificates</title>
    <desc>Created with Sketch.</desc>
    <defs>
        <rect id="path-1" x="7.40740741" y="6.37762238" width="185.677034" height="139.620541"/>
        <filter x="-10.0%" y="-12.5%" width="119.9%" height="126.5%" filterUnits="objectBoundingBox" id="filter-2">
            <feOffset dx="0" dy="1" in="SourceAlpha" result="shadowOffsetOuter1"/>
            <feGaussianBlur stdDeviation="6" in="shadowOffsetOuter1" result="shadowBlurOuter1"/>
            <feColorMatrix values="0 0 0 0 0   0 0 0 0 0   0 0 0 0 0  0 0 0 0.0860507246 0" type="matrix" in="shadowBlurOuter1"/>
        </filter>
        <rect id="path-3" x="0" y="0" width="45.1803332" height="9.90079998"/>
        <filter x="-6.6%" y="-30.3%" width="113.3%" height="180.8%" filterUnits="objectBoundingBox" id="filter-4">
            <feMorphology radius="2" operator="dilate" in="SourceAlpha" result="shadowSpreadOuter1"/>
            <feOffset dx="0" dy="2" in="shadowSpreadOuter1" result="shadowOffsetOuter1"/>
            <feComposite in="shadowOffsetOuter1" in2="SourceAlpha" operator="out" result="shadowOffsetOuter1"/>
            <feColorMatrix values="0 0 0 0 0.250980392   0 0 0 0 0.309803922   0 0 0 0 0.329411765  0 0 0 0.16 0" type="matrix" in="shadowOffsetOuter1"/>
        </filter>
    </defs>
    <g id="illustration_certificates" stroke="none" stroke-width="1" fill="none" fill-rule="evenodd">
        <g id="bg-ilustrasi" opacity="0.4734375" transform="translate(12.000000, 14.000000)">
            <path d="M90.7739666,98.7573445 C90.7739666,98.7573445 91.9683447,100.637344 92.724284,101.393284 C93.5034925,102.172492 95.37941,103.362788 95.37941,103.362788 C95.37941,103.362788 93.470562,104.621938 92.724284,105.368216 C91.9354142,106.157086 90.7739666,107.968231 90.7739666,107.968231 C90.7739666,107.968231 89.6042184,106.09939 88.873045,105.368216 C88.0690706,104.564242 86.1685232,103.362788 86.1685232,103.362788 C86.1685232,103.362788 88.0813855,102.184943 88.873045,101.393284 C89.6165334,100.649795 90.7739666,98.7573445 90.7739666,98.7573445 Z" id="Polygon" fill="#DAE2E6"/>
            <path d="M341.734949,215.233166 C341.734949,215.233166 342.71418,216.774517 343.33395,217.394287 C343.972798,218.033134 345.510802,219.009019 345.510802,219.009019 C345.510802,219.009019 343.945799,220.041356 343.33395,220.653205 C342.687182,221.299973 341.734949,222.784872 341.734949,222.784872 C341.734949,222.784872 340.77591,221.25267 340.176445,220.653205 C339.517293,219.994052 337.959096,219.009019 337.959096,219.009019 C337.959096,219.009019 339.527389,218.043343 340.176445,217.394287 C340.786007,216.784725 341.734949,215.233166 341.734949,215.233166 Z" id="Polygon-Copy-9" fill="#DAE2E6"/>
            <path d="M50.7360367,157.972191 C50.7360367,157.972191 51.6575426,159.422679 52.2407772,160.005913 C52.8419647,160.607101 54.289303,161.525457 54.289303,161.525457 C54.289303,161.525457 52.8165576,162.496937 52.2407772,163.072718 C51.6321355,163.681359 50.7360367,165.078723 50.7360367,165.078723 C50.7360367,165.078723 49.8335337,163.636844 49.2694069,163.072718 C48.6491116,162.452422 47.1827705,161.525457 47.1827705,161.525457 C47.1827705,161.525457 48.658613,160.616707 49.2694069,160.005913 C49.8430351,159.432285 50.7360367,157.972191 50.7360367,157.972191 Z" id="Polygon-Copy-7" fill="#DAE2E6"/>
            <path d="M131.746277,210.26457 C131.746277,210.26457 132.810985,211.940463 133.484854,212.614332 C134.179466,213.308944 135.851721,214.370013 135.851721,214.370013 C135.851721,214.370013 134.150111,215.492461 133.484854,216.157718 C132.78163,216.860942 131.746277,218.475457 131.746277,218.475457 C131.746277,218.475457 130.703525,216.80951 130.051733,216.157718 C129.335044,215.441029 127.640834,214.370013 127.640834,214.370013 C127.640834,214.370013 129.346022,213.320044 130.051733,212.614332 C130.714503,211.951563 131.746277,210.26457 131.746277,210.26457 Z" id="Polygon-Copy" fill="#DAE2E6"/>
            <path d="M230.197229,17.6287635 C230.197229,17.6287635 231.132266,19.1005508 231.724065,19.6923497 C232.334081,20.3023653 233.802672,21.2342069 233.802672,21.2342069 C233.802672,21.2342069 232.308301,22.2199526 231.724065,22.8041879 C231.106486,23.4217671 230.197229,24.8396503 230.197229,24.8396503 C230.197229,24.8396503 229.281473,23.3765985 228.709063,22.8041879 C228.079659,22.174784 226.591786,21.2342069 226.591786,21.2342069 C226.591786,21.2342069 228.0893,20.3121127 228.709063,19.6923497 C229.291114,19.1102983 230.197229,17.6287635 230.197229,17.6287635 Z" id="Polygon-Copy-3" fill="#DAE2E6"/>
            <path d="M293.787289,20.2676523 C293.787289,20.2676523 294.722326,21.7394396 295.314125,22.3312385 C295.924141,22.941254 297.392732,23.8730957 297.392732,23.8730957 C297.392732,23.8730957 295.898361,24.8588414 295.314125,25.4430767 C294.696546,26.0606558 293.787289,27.4785391 293.787289,27.4785391 C293.787289,27.4785391 292.871533,26.0154873 292.299123,25.4430767 C291.669719,24.8136728 290.181845,23.8730957 290.181845,23.8730957 C290.181845,23.8730957 291.67936,22.9510015 292.299123,22.3312385 C292.881174,21.749187 293.787289,20.2676523 293.787289,20.2676523 Z" id="Polygon-Copy-6" fill="#DAE2E6"/>
            <path d="M67.82355,24.8906977 C67.82355,24.8906977 68.5659465,26.0592601 69.0358201,26.5291338 C69.5201573,27.0134709 70.6861822,27.7533299 70.6861822,27.7533299 C70.6861822,27.7533299 69.4996884,28.5359874 69.0358201,28.9998557 C68.5454777,29.4901981 67.82355,30.6159621 67.82355,30.6159621 C67.82355,30.6159621 67.0964629,29.4543354 66.6419832,28.9998557 C66.1422521,28.5001247 64.9609179,27.7533299 64.9609179,27.7533299 C64.9609179,27.7533299 66.1499068,27.0212101 66.6419832,26.5291338 C67.1041175,26.0669994 67.82355,24.8906977 67.82355,24.8906977 Z" id="Polygon-Copy-2" fill="#DAE2E6"/>
            <path d="M223.729153,218.728493 C223.729153,218.728493 224.47155,219.897055 224.941423,220.366929 C225.425761,220.851266 226.591786,221.591125 226.591786,221.591125 C226.591786,221.591125 225.405292,222.373783 224.941423,222.837651 C224.451081,223.327993 223.729153,224.453757 223.729153,224.453757 C223.729153,224.453757 223.002066,223.292131 222.547586,222.837651 C222.047855,222.33792 220.866521,221.591125 220.866521,221.591125 C220.866521,221.591125 222.05551,220.859005 222.547586,220.366929 C223.009721,219.904795 223.729153,218.728493 223.729153,218.728493 Z" id="Polygon-Copy-5" fill="#DAE2E6"/>
            <path d="M96.056343,57.9453111 L89.15932,51.0482881" id="Path-67" stroke="#DAE2E6" stroke-width="2" fill="#DAE2E6" stroke-linecap="round"/>
            <path d="M86.2645251,202.656036 L77.1810049,207.993041" id="Path-68" stroke="#DAE2E6" stroke-width="2" fill="#DAE2E6" stroke-linecap="round"/>
            <path d="M305.367098,246.307671 L311.349485,246.307671" id="Path-69" stroke="#DAE2E6" stroke-width="2" fill="#DAE2E6" stroke-linecap="round"/>
            <path d="M147.169467,230.602317 C148.623396,228.166449 149.458774,225.318641 149.458774,222.27572 C149.458774,213.290328 142.174675,206.006229 133.189283,206.006229 C126.214169,206.006229 120.264252,210.395622 117.951066,216.562874" id="Oval-22" stroke="#DAE2E6" stroke-width="2" stroke-linecap="round" stroke-linejoin="round"/>
            <path d="M359.40633,239.245237 C361.04484,236.500128 361.986271,233.290782 361.986271,229.861554 C361.986271,219.735439 353.777433,211.5266 343.651318,211.5266 C335.790692,211.5266 329.085416,216.47324 326.478563,223.423444" id="Oval-22-Copy-10" stroke="#DAE2E6" stroke-width="2" stroke-linecap="round" stroke-linejoin="round"/>
            <path d="M104.200101,5.72185573 C104.200101,8.46982803 106.427772,10.6974997 109.175745,10.6974997 L109.175745,10.6974997 C111.923717,10.6974997 114.151389,8.46982803 114.151389,5.72185573 C114.151389,2.97388343 111.923717,0.746211728 109.175745,0.746211728" id="Oval-22-Copy-3" stroke="#DAE2E6" stroke-width="2" stroke-linecap="round" stroke-linejoin="round"/>
            <circle id="Oval-22-Copy-8" stroke="#DAE2E6" stroke-width="2" stroke-linecap="round" stroke-linejoin="round" cx="277.225875" cy="234.184418" r="3.475644"/>
            <path d="M91.2462774,174.805333 C91.2462774,169.870585 89.9500592,165.238584 87.6795287,161.231237 M82.9858114,155.124312 C78.0107675,150.241143 71.1923318,147.229559 63.6705029,147.229559 C49.3664607,147.229559 37.6061354,158.120505 36.2294244,172.062501" id="Oval-22-Copy" stroke="#DAE2E6" stroke-width="2" stroke-linecap="round" stroke-linejoin="round"/>
            <g id="Group-3" transform="translate(403.000000, 100.000000) rotate(8.000000) translate(-403.000000, -100.000000) translate(373.000000, 80.000000)">
                <path d="M40.921291,13.9454628 C40.921291,13.9454628 42.1712885,15.91301 42.9624303,16.7041518 C43.7779247,17.5196462 45.7411995,18.7653714 45.7411995,18.7653714 C45.7411995,18.7653714 43.7434607,20.0831577 42.9624303,20.8641881 C42.1368245,21.6897939 40.921291,23.5852799 40.921291,23.5852799 C40.921291,23.5852799 39.6970702,21.6294106 38.9318477,20.8641881 C38.090434,20.0227744 36.1013824,18.7653714 36.1013824,18.7653714 C36.1013824,18.7653714 38.1033225,17.532677 38.9318477,16.7041518 C39.7099586,15.9260409 40.921291,13.9454628 40.921291,13.9454628 Z" id="Polygon-Copy-8" fill="#DAE2E6"/>
                <path d="M54.5110093,32.3779088 C54.7479665,30.923564 54.871161,29.4310137 54.871161,27.9096897 C54.871161,12.68001 42.5250662,0.333915205 27.2953865,0.333915205 C14.8410322,0.333915205 4.31506242,8.59031092 0.892326214,19.9282533" id="Oval-22-Copy-6" stroke="#DAE2E6" stroke-width="2" stroke-linecap="round" stroke-linejoin="round"/>
                <path d="M59.93601,39.5374944 C59.93601,35.6987891 56.8241245,32.5869036 52.9854192,32.5869036 C49.1467139,32.5869036 46.0348284,35.6987891 46.0348284,39.5374944" id="Oval-22-Copy-9" stroke="#DAE2E6" stroke-width="2" stroke-linecap="round" stroke-linejoin="round"/>
            </g>
            <path d="M47.4898673,177.946113 C45.4385804,174.721743 41.8335683,172.582517 37.7289131,172.582517 C31.3442861,172.582517 26.1685232,177.75828 26.1685232,184.142907" id="Oval-22-Copy-2" stroke="#DAE2E6" stroke-width="2" stroke-linecap="round" stroke-linejoin="round"/>
        </g>
        <rect id="Combined-Shape" fill="#E0EAEF" x="135" y="70.4699017" width="191" height="143" rx="2"/>
        <g id="certificate" transform="translate(134.000000, 61.000000)">
            <rect id="Rectangle" fill="#EEEFF0" x="0" y="0" width="200" height="152" rx="2.12000012"/>
            <polygon id="Rectangle-15" fill="#4d90cc" points="2.11640212 2.12587413 26.1664262 2.12587413 2.11640212 26.2835346"/>
            <polygon id="Rectangle-15" fill="#4d90cc" transform="translate(186.628187, 14.204704) scale(-1, 1) translate(-186.628187, -14.204704) " points="174.603175 2.12587413 198.653199 2.12587413 174.603175 26.2835346"/>
            <polygon id="Rectangle-15" fill="#4d90cc" transform="translate(186.628187, 138.568341) scale(-1, -1) translate(-186.628187, -138.568341) " points="174.603175 126.48951 198.653199 126.48951 174.603175 150.647171"/>
            <polygon id="Rectangle-15" fill="#4d90cc" transform="translate(14.141414, 138.568341) scale(1, -1) translate(-14.141414, -138.568341) " points="2.11640212 126.48951 26.1664262 126.48951 2.11640212 150.647171"/>
            <g id="Rectangle-10">
                <use fill="black" fill-opacity="1" filter="url(#filter-2)" xlink:href="#path-1"/>
                <use fill="#FFFFFF" fill-rule="evenodd" xlink:href="#path-1"/>
            </g>
            <rect id="Rectangle" stroke="#404F54" stroke-width="2" x="1" y="1" width="198" height="150" rx="4.24000025"/>
            <rect id="Rectangle-7-Copy-9" fill="#E0EAEF" x="49.7354497" y="57.3986014" width="100.529101" height="7.44055944" rx="3.72027972"/>
            <rect id="Rectangle-7-Copy-9" fill="#E0EAEF" x="62.4338624" y="117.986014" width="75.1322751" height="7.44055944" rx="3.72027972"/>
            <rect id="Rectangle-7-Copy-9" fill="#E0EAEF" x="45.5026455" y="88.2237762" width="107.936508" height="7.44055944" rx="3.72027972"/>
            <rect id="Rectangle-7-Copy-9" fill="#E0EAEF" x="83.5978836" y="76.5314685" width="32.8042328" height="5.31468531" rx="2.65734266"/>
            <rect id="Rectangle-7-Copy-9" fill="#E0EAEF" x="73.015873" y="107.356643" width="55.026455" height="5.31468531" rx="2.65734266"/>
            <ellipse id="Oval" fill="#6aace6" cx="100.111111" cy="35.1608392" rx="11.1111111" ry="11.1608392"/>
            <polygon id="Star" fill="#FFFFFF" points="100.205 39.3361725 96.3700991 41.4655411 97.1025 36.955466 94 33.761413 98.2875495 33.1034019 100.205 29 102.12245 33.1034019 106.41 33.761413 103.3075 36.955466 104.039901 41.4655411"/>
        </g>
        <g id="check" transform="translate(302.000000, 51.000000)">
            <g id="Group-4" transform="translate(0.000000, 20.041096)">
                <ellipse id="Oval-9-Copy" fill="#FFFFFF" cx="26.4609408" cy="26.1534822" rx="26.2707442" ry="26.1534822"/>
                <ellipse id="Oval-9-Copy-11" fill="#5e5e5e99" cx="30.9435415" cy="30.6160744" rx="26.2707442" ry="26.1534822"/>
                <ellipse id="Oval-9-Copy-11" fill="#5e5e5e" cx="32.9403364" cy="34.7135454" rx="21.0953779" ry="21.0012166"/>
                <path d="M5.98827402,9.76276055 C2.36117709,14.2470892 0.190196562,19.9478875 0.190196562,26.1534822 C0.190196562,40.5976515 11.9520094,52.3069643 26.4609408,52.3069643 L26.4609408,52.3069643 C40.9698722,52.3069643 52.731685,40.5976515 52.731685,26.1534822 C52.731685,14.8609123 45.5425822,5.23995251 35.4721381,1.57913611 M26.4609408,0 C21.3810628,0 16.6379391,1.43538073 12.6184749,3.92096398" id="Oval-9-Copy-12" stroke="#404F54" stroke-width="2" stroke-linecap="round"/>
            </g>
            <polyline id="Path-59" stroke="#FFFFFF" stroke-width="4.24000025" stroke-linecap="round" stroke-linejoin="round" points="21.1904762 43.9358904 31.6631223 54.8493151 54.0357143 25.3150685"/>
            <g id="Group" transform="translate(51.743308, 0.000000)" stroke="#5e5e5e99" stroke-linecap="round" stroke-width="3.18000019">
                <path d="M13.497412,19.2270697 L36.0382052,0" id="Path-65"/>
                <path d="M0.230331263,15.7273303 L1.98948628,0" id="Path-71"/>
                <path d="M16.4456522,36.2184336 L32.6696105,35.2209649" id="Path-72"/>
            </g>
        </g>
        <g id="Trust-Badge" transform="translate(123.500000, 205.000000) rotate(-10.000000) translate(-123.500000, -205.000000) translate(90.000000, 173.000000)">
            <path d="M10.9646339,43.7012714 L10.9646339,11.7050881 C10.9646339,11.0841629 11.343841,10.5262131 11.9211764,10.2976702 L31.4880052,2.55198518 C31.8459187,2.41030225 32.2443668,2.41030225 32.6022804,2.55198518 L52.1691091,10.2976702 C52.7464446,10.5262131 53.1256516,11.0841629 53.1256516,11.7050881 L53.1256516,54.2557332 C53.1256516,54.8766584 52.7464446,55.4346082 52.1691091,55.6631511 L32.6022804,63.4088361 C32.2443668,63.550519 31.8459187,63.550519 31.4880052,63.4088361 L11.9211764,55.6631511 C11.343841,55.4346082 10.9646339,54.8766584 10.9646339,54.2557332 L10.9646339,53.985158 L2.20947782,53.985158 C1.9179129,53.985158 1.63255229,53.9009514 1.3876973,53.7426601 C0.685642756,53.2888032 0.484438774,52.3517519 0.938295624,51.6496974 L2.84549156,48.6995258 L1.04730971,46.0692155 C0.875262727,45.8175519 0.783213719,45.5198035 0.783213719,45.2149515 C0.783213719,44.3789691 1.46091138,43.7012714 2.2968938,43.7012714 L10.9646339,43.7012714 Z" id="Combined-Shape" fill="#E0EAEF"/>
            <path d="M55.8222396,41.5679381 L65.1955732,41.5679381 C66.0315557,41.5679381 66.7092533,42.2456357 66.7092533,43.0816182 L66.7092533,50.3381445 C66.7092533,51.174127 66.0315557,51.8518246 65.1955732,51.8518246 L55.9096556,51.8518246 C55.0736732,51.8518246 54.3959755,51.174127 54.3959755,50.3381445 C54.3959755,50.0332925 54.4880245,49.7355442 54.6600715,49.4838805 L56.4582534,46.8535702 L54.5510574,43.9033987 C54.0972006,43.2013441 54.2984046,42.2642928 55.0004591,41.810436 C55.2453141,41.6521447 55.5306747,41.5679381 55.8222396,41.5679381 Z" id="Rectangle-Copy-2" stroke="#404F54" stroke-width="2" fill="#4d90cc" stroke-linecap="round" transform="translate(60.183070, 46.709881) rotate(-180.000000) translate(-60.183070, -46.709881) "/>
            <path d="M5.39995401,41.5679381 L14.7732876,41.5679381 C15.6092701,41.5679381 16.2869677,42.2456357 16.2869677,43.0816182 L16.2869677,50.3381445 C16.2869677,51.174127 15.6092701,51.8518246 14.7732876,51.8518246 L5.48736999,51.8518246 C4.65138757,51.8518246 3.97368991,51.174127 3.97368991,50.3381445 C3.97368991,50.0332925 4.06573892,49.7355442 4.2377859,49.4838805 L6.03596775,46.8535702 L4.12877181,43.9033987 C3.67491496,43.2013441 3.87611895,42.2642928 4.57817349,41.810436 C4.82302848,41.6521447 5.10838909,41.5679381 5.39995401,41.5679381 Z" id="Rectangle-Copy-3" stroke="#404F54" stroke-width="2" fill="#4d90cc" stroke-linecap="round" transform="translate(9.760785, 46.709881) scale(-1, 1) rotate(-180.000000) translate(-9.760785, -46.709881) "/>
            <path d="M15.1116526,8.16433689 L34.6784814,0.41865185 C35.0363949,0.276968922 35.434843,0.276968922 35.7927566,0.41865185 L55.3595853,8.16433689 C55.9369208,8.39287973 56.3161278,8.9508296 56.3161278,9.57175478 L56.3161278,52.1223998 C56.3161278,52.743325 55.9369208,53.3012749 55.3595853,53.5298177 L35.7927566,61.2755028 C35.434843,61.4171857 35.0363949,61.4171857 34.6784814,61.2755028 L15.1116526,53.5298177 C14.5343172,53.3012749 14.1551101,52.743325 14.1551101,52.1223998 L14.1551101,9.57175478 C14.1551101,8.9508296 14.5343172,8.39287973 15.1116526,8.16433689 Z" id="Rectangle-6" stroke="#404F54" stroke-width="2" fill="#FFFFFF" stroke-linecap="round"/>
            <polyline id="Path-10-Copy" stroke="#404F54" stroke-width="0.756840042" stroke-linecap="round" stroke-linejoin="round" points="31.2901689 55.6146911 32.7579047 54.142574 34.0291148 55.6146911 35.6654973 54.142574 37.1022081 55.6146911 38.6776157 54.142574 40.0408256 55.6146911"/>
            <g id="screen" transform="translate(24.460317, 19.200000)">
                <path d="M17.1417421,8.12213483 L17.1417421,11.9318932 C17.1417421,12.5762859 16.6536319,13.0986694 16.0519139,13.0986694 L1.62157427,13.0986694 C1.01967875,13.0986694 0.531746032,12.5744927 0.531746032,11.9339914 L0.531746032,3.08468131 C0.531746032,2.44144738 1.02067103,1.92000326 1.6286771,1.92000326 L8.53040609,1.92000326" id="Rectangle-2" fill="#E0EAEF" opacity="0.5"/>
                <path d="M18.7369802,6.50387444 L18.7369802,10.3128313 C18.7369802,10.9570885 18.24887,11.4793621 17.647152,11.4793621 L3.21681236,11.4793621 C2.61491685,11.4793621 2.12698413,10.9552957 2.12698413,10.3149291 L2.12698413,1.46748063 C2.12698413,0.824382026 2.61590913,0.303047597 3.2239152,0.303047597 L10.1256442,0.303047597" id="Rectangle-2" stroke="#404F54" stroke-width="1.27200012" fill="#FFFFFF" stroke-linecap="round" stroke-linejoin="round"/>
                <path d="M6.53514982,1.12904126 L6.53514982,11.4915451" id="Path-6" stroke="#404F54" stroke-width="1.08984975" stroke-linecap="round" stroke-linejoin="round"/>
                <path d="M9.88982257,6.64674733 L12.1027509,6.64674733" id="Path-7-Copy" stroke="#404F54" stroke-width="1.08984975" stroke-linecap="round" stroke-linejoin="round"/>
                <path d="M9.88982257,3.70561192 L10.4903144,3.70561192" id="Path-7" stroke="#404F54" stroke-width="1.08984975" stroke-linecap="round" stroke-linejoin="round"/>
            </g>
            <g id="globe" transform="translate(35.095238, 13.866667)" stroke="#404F54" stroke-linecap="round" stroke-linejoin="round">
                <ellipse id="Oval-4" stroke-width="1.27200012" fill="#FFFFFF" cx="5.58458989" cy="5.90096482" rx="5.58458989" ry="5.60126031"/>
                <path d="M4.42892439,0.50322845 C4.42892439,0.50322845 2.60135436,2.34827404 4.18600069,2.66044638 C5.77064701,2.97261872 5.49290745,3.47562154 5.49290745,4.31834649 C5.49290745,5.16107143 6.35079465,5.21283694 6.96050952,4.59463393 C7.57022439,3.97643091 7.05612191,2.47961805 8.24913359,2.91646631 C9.44214527,3.35331456 9.8437523,2.48189924 9.8437523,2.48189924" id="Path-9" stroke-width="1.08984975"/>
                <path d="M1.96434518,9.95466374 C1.96434518,9.95466374 5.15275288,7.29096491 5.15275288,11.1824404" id="Path-2" stroke-width="1.08984975"/>
            </g>
            <polyline id="Path-10-Copy" stroke="#404F54" stroke-width="0.756840042" stroke-linecap="round" stroke-linejoin="round" points="31.365423 7.34033462 32.5363465 6.16591581 33.5504867 7.34033462 34.8559523 6.16591581 36.0021249 7.34033462 37.2589463 6.16591581 38.3464816 7.34033462"/>
            <ellipse id="Oval-5" fill="#404F54" cx="52.5104523" cy="11.2336" rx="1" ry="1"/>
            <ellipse id="Oval-5-Copy" fill="#404F54" cx="18.720119" cy="11.2336" rx="1" ry="1"/>
            <g id="Group-5" transform="translate(12.455619, 35.647998)">
                <g id="Group-2" transform="translate(0.000000, 3.200000)">
                    <g id="Rectangle-7" stroke-linecap="round" stroke-linejoin="round">
                        <use fill="black" fill-opacity="1" filter="url(#filter-4)" xlink:href="#path-3"/>
                        <rect stroke="#404F54" stroke-width="2" fill="#4d90cc" fill-rule="evenodd" x="-1" y="-1" width="47.1803332" height="11.9008"/>
                    </g>
                    <rect id="Rectangle-7-Copy" fill="#6aace6" x="0" y="1.55484868" width="45.1803332" height="6.79110261"/>
                </g>
                <g id="stars" transform="translate(14.888889, 5.333333)" fill="#FFFFFF">
                    <polygon id="Star-3-Copy-2" points="1.89833333 4.18933333 0.782520994 4.77770168 0.995622187 3.53151751 0.0929110463 2.64896497 1.34042716 2.46714915 1.89833333 1.33333333 2.4562395 2.46714915 3.70375561 2.64896497 2.80104447 3.53151751 3.01414566 4.77770168"/>
                    <polygon id="Star-3-Copy-2" points="8.41222222 4 6.84945984 4.82404532 7.1479209 3.07868933 5.88361958 1.84262135 7.63084103 1.58797734 8.41222222 0 9.19360341 1.58797734 10.9408249 1.84262135 9.67652354 3.07868933 9.97498459 4.82404532"/>
                    <polygon id="Star-3-Copy-3" points="14.9261111 4.18933333 13.8102988 4.77770168 14.0234 3.53151751 13.1206888 2.64896497 14.3682049 2.46714915 14.9261111 1.33333333 15.4840173 2.46714915 16.7315334 2.64896497 15.8288222 3.53151751 16.0419234 4.77770168"/>
                </g>
            </g>
        </g>
    </g>
</svg>
