<svg xmlns="http://www.w3.org/2000/svg" xmlns:xlink="http://www.w3.org/1999/xlink" width="44px" height="40px" viewBox="0 0 44 40" version="1.1">
    <!-- Generator: Sketch 41.1 (35376) - http://www.bohemiancoding.com/sketch -->
    <title>seamless hosting</title>
    <desc>Created with Sketch.</desc>
    <defs/>
    <g id="Page-1" stroke="none" stroke-width="1" fill="none" fill-rule="evenodd">
        <g id="Icons" transform="translate(-275.000000, -228.000000)">
            <g id="seamless-hosting" transform="translate(274.000000, 224.000000)">
                <rect id="Rectangle-22" x="0.174173414" y="0" width="45" height="45"/>
                <path d="M17.4742285,20.8105627 C17.4291219,20.8094891 17.3838832,20.8089492 17.3385183,20.8089492 C14.248195,20.8089492 11.7429929,23.3141513 11.7429929,26.4044746 C11.7429929,29.4947979 14.248195,32 17.3385183,32 L35.9902697,32 C39.080593,32 41.5857951,29.4947979 41.5857951,26.4044746 C41.5857951,23.3167208 39.0847574,20.8131157 35.9979772,20.8089544 C35.1718615,16.4461418 31.3393552,13.1468372 26.736255,13.1468372 C22.1325893,13.1468372 18.2997068,16.4469527 17.4742285,20.8105627 L17.4742285,20.8105627 Z" id="Combined-Shape" fill="#E0EAEF"/>
                <path d="M17.7134965,13.3618178 C16.2102259,14.7718862 15.271104,16.7762713 15.271104,19 C15.271104,23.2685514 18.7314486,26.728896 23,26.728896 L23,26.728896 C27.2685514,26.728896 30.728896,23.2685514 30.728896,19 C30.728896,14.7314486 27.2685514,11.271104 23,11.271104 C22.2852585,11.271104 21.593177,11.3681229 20.9362064,11.5497098" id="Oval-2" stroke="#404F54" stroke-width="1.5" stroke-linecap="round" fill="#5e5e5e"/>
                <path d="M9.98644795,16.4075752 C9.92359217,16.4060791 9.86055222,16.4053269 9.79733657,16.4053269 C5.49098649,16.4053269 2,19.8963133 2,24.2026634 C2,28.5090135 5.49098649,32 9.79733657,32 L35.7884585,32 C40.0948086,32 43.5857951,28.5090135 43.5857951,24.2026634 C43.5857951,19.8998941 40.1006116,16.4111329 35.7991989,16.4053341 C34.6480108,10.3257767 29.3074325,5.72821225 22.8930355,5.72821225 C16.4778504,5.72821225 11.1367478,10.3269066 9.98644795,16.4075752 L9.98644795,16.4075752 Z" id="Combined-Shape-Copy" stroke="#404F54" stroke-width="1.5" stroke-linecap="round" stroke-linejoin="round"/>
                <path d="M26.2928975,39.3265312 L41.1501705,39.3265312" id="Path-79" stroke="#4d90cc" stroke-width="1.5" stroke-linecap="round"/>
                <path d="M4.16914645,39.3265312 L19.0264194,39.3265312" id="Path-79-Copy" stroke="#4d90cc" stroke-width="1.5" stroke-linecap="round"/>
                <circle id="Oval" stroke="#404F54" stroke-width="1.5" stroke-linecap="round" cx="22.7928975" cy="39.5" r="3.5"/>
                <polyline id="Path-80" stroke="#FFFFFF" stroke-width="1.5" stroke-linecap="round" stroke-linejoin="round" points="22.8385415 15.5898863 21.349549 19.1025087 24.650451 19.1231099 23.0003723 22.138326"/>
            </g>
        </g>
    </g>
</svg>
